<mxfile host="65bd71144e">
    <diagram id="7Gb622pf6AQlH9ZCGy2M" name="Page-1">
        <mxGraphModel dx="969" dy="424" grid="0" gridSize="10" guides="1" tooltips="1" connect="1" arrows="1" fold="1" page="0" pageScale="1" pageWidth="827" pageHeight="1169" math="0" shadow="0">
            <root>
                <mxCell id="0"/>
                <mxCell id="1" parent="0"/>
                <mxCell id="2" value="" style="shape=image;verticalLabelPosition=bottom;labelBackgroundColor=#ffffff;verticalAlign=top;aspect=fixed;imageAspect=0;image=https://miro.medium.com/max/1400/0*iU9Ks05_GTtGh6zV.jpg;" parent="1" vertex="1">
                    <mxGeometry x="157" y="136" width="520" height="382" as="geometry"/>
                </mxCell>
                <mxCell id="4" style="edgeStyle=none;html=1;strokeWidth=3;strokeColor=#FF3399;" parent="1" edge="1">
                    <mxGeometry relative="1" as="geometry">
                        <mxPoint x="560" y="621" as="targetPoint"/>
                        <mxPoint x="401" y="621" as="sourcePoint"/>
                    </mxGeometry>
                </mxCell>
                <mxCell id="3" value="" style="rounded=0;whiteSpace=wrap;html=1;strokeWidth=3;strokeColor=#FF3399;" parent="1" vertex="1">
                    <mxGeometry x="245" y="591" width="120" height="60" as="geometry"/>
                </mxCell>
                <mxCell id="5" style="edgeStyle=none;html=1;strokeWidth=3;strokeColor=#66B2FF;" parent="1" edge="1">
                    <mxGeometry relative="1" as="geometry">
                        <mxPoint x="561" y="687" as="targetPoint"/>
                        <mxPoint x="402" y="687" as="sourcePoint"/>
                    </mxGeometry>
                </mxCell>
                <mxCell id="6" value="" style="rounded=0;whiteSpace=wrap;html=1;strokeWidth=3;strokeColor=#66B2FF;" parent="1" vertex="1">
                    <mxGeometry x="245" y="672" width="120" height="60" as="geometry"/>
                </mxCell>
                <mxCell id="7" style="edgeStyle=none;html=1;strokeWidth=3;strokeColor=#6600CC;" parent="1" edge="1">
                    <mxGeometry relative="1" as="geometry">
                        <mxPoint x="565" y="794.5" as="targetPoint"/>
                        <mxPoint x="406" y="794.5" as="sourcePoint"/>
                    </mxGeometry>
                </mxCell>
                <mxCell id="8" value="" style="rounded=0;whiteSpace=wrap;html=1;strokeWidth=3;strokeColor=#6600CC;" parent="1" vertex="1">
                    <mxGeometry x="245" y="765" width="120" height="60" as="geometry"/>
                </mxCell>
                <mxCell id="9" style="edgeStyle=none;html=1;strokeWidth=3;dashed=1;dashPattern=1 1;strokeColor=#66B2FF;" parent="1" edge="1">
                    <mxGeometry relative="1" as="geometry">
                        <mxPoint x="561" y="716" as="targetPoint"/>
                        <mxPoint x="402" y="716" as="sourcePoint"/>
                    </mxGeometry>
                </mxCell>
                <mxCell id="10" value="" style="rounded=0;whiteSpace=wrap;html=1;strokeWidth=3;strokeColor=#33FF33;" parent="1" vertex="1">
                    <mxGeometry x="245" y="858" width="120" height="60" as="geometry"/>
                </mxCell>
                <mxCell id="11" value="" style="rounded=0;whiteSpace=wrap;html=1;strokeWidth=3;strokeColor=#FF3333;" parent="1" vertex="1">
                    <mxGeometry x="245" y="956" width="120" height="60" as="geometry"/>
                </mxCell>
                <mxCell id="12" value="Model" style="text;html=1;strokeColor=none;fillColor=none;align=center;verticalAlign=middle;whiteSpace=wrap;rounded=0;" parent="1" vertex="1">
                    <mxGeometry x="166" y="601" width="60" height="30" as="geometry"/>
                </mxCell>
                <mxCell id="15" value="Interface" style="text;html=1;strokeColor=none;fillColor=none;align=center;verticalAlign=middle;whiteSpace=wrap;rounded=0;" parent="1" vertex="1">
                    <mxGeometry x="166" y="780" width="60" height="30" as="geometry"/>
                </mxCell>
                <mxCell id="16" value="Class" style="text;html=1;strokeColor=none;fillColor=none;align=center;verticalAlign=middle;whiteSpace=wrap;rounded=0;" parent="1" vertex="1">
                    <mxGeometry x="166" y="687" width="60" height="30" as="geometry"/>
                </mxCell>
                <mxCell id="17" value="Model" style="text;html=1;strokeColor=none;fillColor=none;align=center;verticalAlign=middle;whiteSpace=wrap;rounded=0;" parent="1" vertex="1">
                    <mxGeometry x="166" y="873" width="60" height="30" as="geometry"/>
                </mxCell>
                <mxCell id="30" value="External" style="text;html=1;strokeColor=none;fillColor=none;align=center;verticalAlign=middle;whiteSpace=wrap;rounded=0;" parent="1" vertex="1">
                    <mxGeometry x="166" y="971" width="60" height="30" as="geometry"/>
                </mxCell>
            </root>
        </mxGraphModel>
    </diagram>
</mxfile>
